<svg xmlns="http://www.w3.org/2000/svg" width="175" height="30" fill="none"><path fill="#D9D9D9" fill-rule="evenodd" d="M46.358 11.422c-.121-.317-1.32-.63-3.288-.86-2.596-.304-4.574.044-7.222 1.27-.575.267-1.176.488-1.447.532-.254.042-1.606.097-3.004.123l-6.28.12c-2.055.04-4.846.091-6.202.115a118 118 0 0 0-3.178.086c-.631.039-.713.06-.713.189 0 .08.078.195.174.256.095.06 1.646.376 3.447.7 8.086 1.452 8.785 1.583 9.9 1.849l1.503.355c.572.134 1.066.259 1.097.277.032.018-.144.2-.39.406-.646.536-1.631 1.506-1.631 1.605 0 .184.421.113 2.04-.349.932-.265 1.756-.482 1.833-.482.076 0 .319.091.539.203.467.237 1.177.49 1.373.49.076 0 .772-.624 1.549-1.388l1.41-1.39.771-.234c2.293-.7 4.781-1.803 6.588-2.921 1.004-.623 1.196-.784 1.131-.952Zm-4.907-.154c-.994.146-2.066.542-2.313.858-.265.337-.106.376.921.227.897-.13 2.531-.506 2.953-.68.265-.11.272-.28.014-.379-.187-.07-1.157-.087-1.575-.026Zm-8.189 10.045c.038 0 1.33-2.636 1.331-2.716.002-.173-.37-.012-1.601.696-.521.3-1.137.622-1.368.718-.47.195-.551.403-.262.672l.158.147-.404.453c-.222.25-1.518 1.58-2.88 2.957-2.139 2.165-3.13 3.236-3.772 4.07-.094.123-.109.172-.038.13.207-.129 2.109-1.6 2.579-1.997 1.07-.902 3.548-3.162 4.599-4.193l1.132-1.11.247.086c.136.048.261.087.279.087Z" clip-rule="evenodd"/><path fill="#D9D9D9" fill-rule="evenodd" d="M54.66 7.82c-1.758-3.502-5.084-5.976-9.01-6.702-.908-.168-1.064-.172-8.88-.204-6.005-.025-7.954-.011-7.954.056 0 .05.39.59.866 1.203.477.612.98 1.312 1.116 1.555.305.539.648 1.472.833 2.268l.139.594 1.316.023c.723.013 3.41.033 5.972.045 2.66.012 4.901.055 5.229.1 2.742.382 4.94 2.307 5.615 4.918.174.674.194.928.233 2.947.056 2.882-.067 3.882-.612 4.955-.755 1.488-2.381 2.682-4.148 3.047-.678.14-1.081.15-6.122.15l-5.397.002-.305.365c-.692.83-2.982 3.357-3.828 4.225-.499.512-.907.963-.907 1.002 0 .071 12.926.073 15.563.001 1.479-.04 2.537-.221 3.775-.647 3.82-1.31 6.782-4.744 7.528-8.722.198-1.06.195-6.888-.005-8.051-.157-.917-.62-2.34-1.016-3.13Z" clip-rule="evenodd"/><path fill="#D9D9D9" fill-rule="evenodd" d="M29.038 21.143c.343-.619.467-.915.435-1.04-.024-.098-.07-.175-.1-.171a9.45 9.45 0 0 0-.712.308c-.36.166-.888.375-1.174.464-.286.089-.52.185-.52.214 0 .029.053.13.12.224.066.094.098.206.072.248-.026.042-.869.83-1.873 1.752-2.96 2.72-5.58 5.344-5.456 5.468.027.027.145-.039.26-.147.117-.108.68-.542 1.252-.963 1.52-1.12 4.939-3.963 6.317-5.254l.577-.54.161.151.161.152.48-.866ZM25.783 2.598c-1.423-1.066-2.577-1.492-4.595-1.7C20.157.792 0 .692 0 .793c0 .043.218.335.483.648.266.314.932 1.126 1.48 1.804.549.678 1.32 1.619 1.714 2.091l.717.859-.002 11.527c-.001 9.557.016 11.527.101 11.527.186 0 1.523-.61 3.578-1.633l2.022-1.006v-6.53h5.297c5.633 0 5.92-.016 7.326-.392 1.933-.516 3.248-1.16 4.409-2.157.399-.343.77-.862.682-.951-.038-.038-1.834-.398-5.992-1.201-1.117-.216-2.383-.424-2.812-.463-.43-.039-2.61-.072-4.846-.073l-4.064-.002V6.583l5.567.034c6 .038 6.174.049 7.063.464.789.368 1.527 1.41 1.715 2.42.066.358.067.679.003 1.27-.047.434-.073.803-.057.82.016.015 1.262.002 2.77-.029l2.74-.056v-.702c0-1.436-.46-3.2-1.262-4.851-.645-1.326-1.526-2.365-2.85-3.355Zm51.573 3.53c0-2.278-.537-3.37-2.012-4.092-.736-.36-.887-.371-5.745-.42-2.745-.029-5.04-.002-5.102.06-.061.061-.111 3.089-.111 6.727v6.616l1.455-.046 1.455-.045.008-1.896.008-1.896 3.966-.079 3.967-.079.635-.42c1.03-.682 1.476-2.02 1.476-4.43Zm-10.088.217.044 2.105 2.926-.044c1.61-.024 3.085-.078 3.278-.12.521-.114.688-.57.718-1.973.023-1.117-.014-1.303-.328-1.617-.34-.34-.486-.356-3.518-.405l-3.165-.052.045 2.106Zm25.444-2.24L92.666 2.8l-.046-1.303-5.734-.042-5.734-.041V15.01l5.734-.042 5.734-.041v-2.686h-8.485l-.014-1.422-.013-1.422 3.985-.042 3.986-.043-.046-1.3-.046-1.301-3.954-.042-3.955-.042.027-1.064a60.49 60.49 0 0 1 .04-1.262c.01-.152.98-.197 4.29-.197h4.277Zm48.717 0-.046-1.264-.046-1.264-5.813-.09-5.813-.088v13.608h11.705v-2.681l-4.374-.042-4.374-.042.012-.672.025-1.38.012-.708 3.994-.042 3.994-.042.045-1.3.046-1.302-4.079-.042-4.079-.042V4.184l3.638-.034 4.395-.04.758-.005Zm-16.621.158V1.419l-4.231.01c-4.943.013-5.495.104-6.387 1.06-.701.75-.927 1.473-.928 2.97-.001 1.34.337 2.573.827 3.021.903.825 1.267.901 4.762.991 3.225.083 3.303.093 3.599.458.377.466.409 1.63.053 1.986-.136.136-.261.263-.276.281-.016.018-2.022.072-4.458.119l-4.429.085v2.528h4.983c4.858 0 4.999-.009 5.646-.354 1.349-.72 1.877-1.98 1.757-4.192-.101-1.847-.545-2.618-1.867-3.24-.437-.206-1.249-.278-3.849-.345-3.735-.096-3.743-.1-3.743-1.376 0-1.179.162-1.22 4.681-1.187l3.86.029ZM107.669 1.82c.57.16.966.403 1.325.81.865.985 1.012 1.503 1.019 3.607.005 1.713-.032 1.972-.39 2.686-.461.922-1.165 1.443-2.146 1.59-.636.095-.89.275-.582.411.174.078 3.677 3.875 3.677 3.987 0 .052-.883.095-1.962.095h-1.963l-1.794-2.21-1.794-2.212h-1.617l-1.616-.002-.044 2.172-.044 2.173H96.89l-.04-6.557c-.024-3.606-.015-6.628.018-6.715.102-.264 9.806-.116 10.801.165Zm-7.852 6.234V6.063c0-1.751.03-1.98.25-1.896.137.053 1.6.096 3.25.096 2.973 0 3.002.003 3.387.388.337.336.389.531.389 1.47 0 .654-.084 1.198-.211 1.372-.3.41-1.359.542-4.416.552l-2.65.01Zm74.341-3.791V1.419l-4.547.018c-2.501.01-4.69.053-4.864.095-.817.197-1.381.604-1.782 1.288-.372.633-.435.936-.487 2.334-.085 2.307.281 3.19 1.612 3.886.596.311.97.351 4.013.43 3.899.1 3.92.108 3.92 1.449 0 .648-.07.855-.373 1.1-.347.28-.675.302-4.627.302h-4.253v2.708l4.864-.057c4.714-.054 4.887-.067 5.625-.425 1.106-.535 1.552-1.287 1.689-2.849.225-2.554-.261-3.821-1.722-4.487-.641-.292-1.122-.342-3.987-.415-2.403-.062-3.326-.14-3.515-.297-.539-.448-.469-1.726.114-2.115.096-.064 2.007-.117 4.247-.119l4.073-.002ZM97.84 21.406v.87h-5.536v1.58h4.745v1.738h-4.745v3.001h-1.898v-8.058h7.434v.87Zm20.874 1.75c1.346 1.427 2.508 2.595 2.583 2.595.075 0 .119-.302.097-.671-.022-.37-.028-1.543-.013-2.607l.027-1.936h1.74v8.058l-.91-.009-.909-.009-2.426-2.598c-1.334-1.429-2.491-2.598-2.57-2.598-.082 0-.145 1.137-.145 2.607v2.607h-1.74v-8.058l.91.012.909.01 2.447 2.596Zm29.742-.88v-1.74h-7.276v8.058h7.276v-1.738h-5.378l-.001-.75v-.75h4.983l.048-.83.048-.83h-5.078v-1.422h5.378Zm-38.943-.91-.047.83-2.729.043-2.728.043v1.415h5.078l-.048.83-.048.83h-4.983l.001.75v.75h5.536v1.738h-7.434v-8.058h7.45l-.048.83Zm49.14-15.01c-.002 2.803-.074 5.245-.166 5.649-.22.96-.716 1.656-1.57 2.204-1.054.676-2.186.831-5.615.77-2.736-.049-3.078-.086-3.817-.42-.955-.43-1.515-.971-1.907-1.843-.25-.558-.29-1.245-.336-5.886l-.052-5.253h3.015l.046 4.973c.005.51.007.975.009 1.398.012 2.572.017 3.613.532 4.037.349.289.935.293 1.918.299.238.001.499.003.786.009 3.087.064 3.447.003 3.847-.652.287-.472.308-.826.308-5.364l.001-4.858h3.005l-.004 4.937Zm-23.01 15.919v-1.738l-2.886.006c-3.237.007-3.704.114-4.228.973-.237.389-.319.798-.319 1.604-.001 1.02.03 1.113.537 1.62.474.474.638.538 1.384.545 1.273.011 3.825.158 4.049.233.209.069.264.667.102 1.09-.083.215-.498.25-3.005.25h-2.91v1.738l3.124-.003c2.95-.003 3.16-.023 3.757-.36.722-.408 1.005-1.022 1.019-2.21.013-1.062-.313-1.744-.984-2.062-.435-.206-1.023-.264-2.677-.264-2.224 0-2.499-.078-2.499-.71 0-.651.253-.712 2.958-.712h2.578Zm-50.141-.869v.87h-5.378v1.42h5.079l-.048.83-.048.83-2.491.043-2.492.043v1.407l2.712.043 2.712.043v1.58l-3.661.043-3.66.042v-8.064h7.275v.87ZM71.542 21c.368.211.848.641 1.067.956.775 1.118.888 3.475.228 4.767-.375.734-1.32 1.519-2.075 1.723-.321.086-1.883.138-3.47.114l-2.886-.043-.023-3.87c-.013-2.13.007-3.93.046-4.002.038-.071 1.503-.107 3.256-.079 3.036.049 3.218.07 3.856.434Zm-5.179 3.817c0-1.122-.043-2.153-.096-2.29-.084-.22.138-.25 1.812-.25 2.103 0 2.614.14 2.962.812.275.531.298 2.332.037 2.905-.319.699-.872.864-2.888.864h-1.827v-2.04Z" clip-rule="evenodd"/></svg>